<mxfile host="app.diagrams.net" agent="Mozilla/5.0 (Windows NT 10.0; Win64; x64) AppleWebKit/537.36 (KHTML, like Gecko) Chrome/140.0.0.0 Safari/537.36 Edg/140.0.0.0" version="28.0.4">
  <diagram name="Page-1" id="bnhoPgbCuiDtEGQYelv7">
    <mxGraphModel dx="1789" dy="976" grid="1" gridSize="10" guides="1" tooltips="1" connect="1" arrows="1" fold="1" page="1" pageScale="1" pageWidth="2339" pageHeight="3300" math="0" shadow="0">
      <root>
        <mxCell id="0" />
        <mxCell id="1" parent="0" />
        <mxCell id="fz6lJ96PnOMNt2c9D2v0-57" value="" style="rounded=0;whiteSpace=wrap;html=1;fillColor=#E6E6E6;" vertex="1" parent="1">
          <mxGeometry x="80" y="440" width="1160" height="200" as="geometry" />
        </mxCell>
        <mxCell id="fz6lJ96PnOMNt2c9D2v0-49" value="" style="rounded=0;whiteSpace=wrap;html=1;" vertex="1" parent="1">
          <mxGeometry x="80" y="200" width="1160" height="180" as="geometry" />
        </mxCell>
        <mxCell id="fz6lJ96PnOMNt2c9D2v0-6" value="PR Merged" style="rounded=0;whiteSpace=wrap;html=1;" vertex="1" parent="1">
          <mxGeometry x="840" y="255" width="120" height="40" as="geometry" />
        </mxCell>
        <mxCell id="fz6lJ96PnOMNt2c9D2v0-9" value="" style="endArrow=classic;html=1;rounded=0;entryX=0;entryY=0.5;entryDx=0;entryDy=0;" edge="1" parent="1" target="fz6lJ96PnOMNt2c9D2v0-47">
          <mxGeometry width="50" height="50" relative="1" as="geometry">
            <mxPoint x="240" y="275" as="sourcePoint" />
            <mxPoint x="359.9999999999998" y="275" as="targetPoint" />
          </mxGeometry>
        </mxCell>
        <mxCell id="fz6lJ96PnOMNt2c9D2v0-10" value="" style="endArrow=classic;html=1;rounded=0;entryX=0;entryY=0.5;entryDx=0;entryDy=0;" edge="1" parent="1">
          <mxGeometry width="50" height="50" relative="1" as="geometry">
            <mxPoint x="720" y="275" as="sourcePoint" />
            <mxPoint x="840" y="275" as="targetPoint" />
          </mxGeometry>
        </mxCell>
        <mxCell id="fz6lJ96PnOMNt2c9D2v0-11" value="" style="endArrow=classic;html=1;rounded=0;entryX=0;entryY=0.5;entryDx=0;entryDy=0;" edge="1" parent="1">
          <mxGeometry width="50" height="50" relative="1" as="geometry">
            <mxPoint x="960" y="274.5" as="sourcePoint" />
            <mxPoint x="1080" y="274.5" as="targetPoint" />
          </mxGeometry>
        </mxCell>
        <mxCell id="fz6lJ96PnOMNt2c9D2v0-17" value="PR Merged" style="rounded=0;whiteSpace=wrap;html=1;" vertex="1" parent="1">
          <mxGeometry x="840" y="500" width="120" height="40" as="geometry" />
        </mxCell>
        <mxCell id="fz6lJ96PnOMNt2c9D2v0-18" value="" style="endArrow=classic;html=1;rounded=0;entryX=0;entryY=0.5;entryDx=0;entryDy=0;" edge="1" parent="1">
          <mxGeometry width="50" height="50" relative="1" as="geometry">
            <mxPoint x="240" y="520" as="sourcePoint" />
            <mxPoint x="360" y="520" as="targetPoint" />
          </mxGeometry>
        </mxCell>
        <mxCell id="fz6lJ96PnOMNt2c9D2v0-19" value="" style="endArrow=classic;html=1;rounded=0;entryX=0;entryY=0.5;entryDx=0;entryDy=0;" edge="1" parent="1">
          <mxGeometry width="50" height="50" relative="1" as="geometry">
            <mxPoint x="720" y="519.5" as="sourcePoint" />
            <mxPoint x="840" y="519.5" as="targetPoint" />
          </mxGeometry>
        </mxCell>
        <mxCell id="fz6lJ96PnOMNt2c9D2v0-20" value="" style="endArrow=classic;html=1;rounded=0;entryX=0;entryY=0.5;entryDx=0;entryDy=0;" edge="1" parent="1">
          <mxGeometry width="50" height="50" relative="1" as="geometry">
            <mxPoint x="960" y="519.5" as="sourcePoint" />
            <mxPoint x="1080" y="519.5" as="targetPoint" />
          </mxGeometry>
        </mxCell>
        <mxCell id="fz6lJ96PnOMNt2c9D2v0-23" value="" style="endArrow=classic;html=1;rounded=0;entryX=0;entryY=0.5;entryDx=0;entryDy=0;" edge="1" parent="1">
          <mxGeometry width="50" height="50" relative="1" as="geometry">
            <mxPoint x="480" y="519.5" as="sourcePoint" />
            <mxPoint x="600" y="519.5" as="targetPoint" />
          </mxGeometry>
        </mxCell>
        <mxCell id="fz6lJ96PnOMNt2c9D2v0-24" value="&lt;b&gt;Success&lt;/b&gt;" style="text;html=1;align=center;verticalAlign=middle;whiteSpace=wrap;rounded=0;" vertex="1" parent="1">
          <mxGeometry x="510" y="490" width="60" height="30" as="geometry" />
        </mxCell>
        <mxCell id="fz6lJ96PnOMNt2c9D2v0-25" value="" style="endArrow=classic;html=1;rounded=0;exitX=0.5;exitY=1;exitDx=0;exitDy=0;" edge="1" parent="1" source="fz6lJ96PnOMNt2c9D2v0-39">
          <mxGeometry width="50" height="50" relative="1" as="geometry">
            <mxPoint x="430" y="580" as="sourcePoint" />
            <mxPoint x="280" y="520" as="targetPoint" />
            <Array as="points">
              <mxPoint x="420" y="620" />
              <mxPoint x="280" y="620" />
            </Array>
          </mxGeometry>
        </mxCell>
        <mxCell id="fz6lJ96PnOMNt2c9D2v0-26" value="&lt;b&gt;Failed&lt;/b&gt;" style="text;html=1;align=center;verticalAlign=middle;whiteSpace=wrap;rounded=0;" vertex="1" parent="1">
          <mxGeometry x="460" y="590" width="180" height="30" as="geometry" />
        </mxCell>
        <mxCell id="fz6lJ96PnOMNt2c9D2v0-33" value="PR Deployed" style="rounded=0;whiteSpace=wrap;html=1;fillColor=#66CC00;" vertex="1" parent="1">
          <mxGeometry x="1080" y="255" width="120" height="40" as="geometry" />
        </mxCell>
        <mxCell id="fz6lJ96PnOMNt2c9D2v0-34" value="PR Created" style="rounded=0;whiteSpace=wrap;html=1;fillColor=#66CC00;" vertex="1" parent="1">
          <mxGeometry x="120" y="255" width="120" height="40" as="geometry" />
        </mxCell>
        <mxCell id="fz6lJ96PnOMNt2c9D2v0-35" value="PR Created" style="rounded=0;whiteSpace=wrap;html=1;fillColor=#66CC00;" vertex="1" parent="1">
          <mxGeometry x="120" y="500" width="120" height="40" as="geometry" />
        </mxCell>
        <mxCell id="fz6lJ96PnOMNt2c9D2v0-36" value="PR Deployed" style="rounded=0;whiteSpace=wrap;html=1;fillColor=#66CC00;" vertex="1" parent="1">
          <mxGeometry x="1080" y="500" width="120" height="40" as="geometry" />
        </mxCell>
        <mxCell id="fz6lJ96PnOMNt2c9D2v0-39" value="" style="rhombus;whiteSpace=wrap;html=1;fillColor=#FF9933;" vertex="1" parent="1">
          <mxGeometry x="360" y="475" width="120" height="90" as="geometry" />
        </mxCell>
        <mxCell id="fz6lJ96PnOMNt2c9D2v0-40" value="Automated Sanity Test" style="text;html=1;align=center;verticalAlign=middle;whiteSpace=wrap;rounded=0;" vertex="1" parent="1">
          <mxGeometry x="380" y="505" width="80" height="30" as="geometry" />
        </mxCell>
        <mxCell id="fz6lJ96PnOMNt2c9D2v0-42" value="" style="rhombus;whiteSpace=wrap;html=1;" vertex="1" parent="1">
          <mxGeometry x="600" y="475" width="120" height="90" as="geometry" />
        </mxCell>
        <mxCell id="fz6lJ96PnOMNt2c9D2v0-43" value="PR Review" style="text;html=1;align=center;verticalAlign=middle;whiteSpace=wrap;rounded=0;" vertex="1" parent="1">
          <mxGeometry x="620" y="505" width="80" height="30" as="geometry" />
        </mxCell>
        <mxCell id="fz6lJ96PnOMNt2c9D2v0-44" value="&lt;b&gt;Success&lt;/b&gt;" style="text;html=1;align=center;verticalAlign=middle;whiteSpace=wrap;rounded=0;" vertex="1" parent="1">
          <mxGeometry x="750" y="490" width="60" height="30" as="geometry" />
        </mxCell>
        <mxCell id="fz6lJ96PnOMNt2c9D2v0-46" value="" style="endArrow=none;html=1;rounded=0;entryX=0.401;entryY=1.016;entryDx=0;entryDy=0;entryPerimeter=0;" edge="1" parent="1" target="fz6lJ96PnOMNt2c9D2v0-44">
          <mxGeometry width="50" height="50" relative="1" as="geometry">
            <mxPoint x="420" y="620" as="sourcePoint" />
            <mxPoint x="470" y="570" as="targetPoint" />
            <Array as="points">
              <mxPoint x="775" y="620" />
            </Array>
          </mxGeometry>
        </mxCell>
        <mxCell id="fz6lJ96PnOMNt2c9D2v0-47" value="" style="rhombus;whiteSpace=wrap;html=1;" vertex="1" parent="1">
          <mxGeometry x="600" y="230" width="120" height="90" as="geometry" />
        </mxCell>
        <mxCell id="fz6lJ96PnOMNt2c9D2v0-48" value="PR Review" style="text;html=1;align=center;verticalAlign=middle;whiteSpace=wrap;rounded=0;" vertex="1" parent="1">
          <mxGeometry x="620" y="260" width="80" height="30" as="geometry" />
        </mxCell>
        <mxCell id="fz6lJ96PnOMNt2c9D2v0-50" value="" style="endArrow=classic;html=1;rounded=0;" edge="1" parent="1">
          <mxGeometry width="50" height="50" relative="1" as="geometry">
            <mxPoint x="780" y="275" as="sourcePoint" />
            <mxPoint x="290" y="275" as="targetPoint" />
            <Array as="points">
              <mxPoint x="780" y="345" />
              <mxPoint x="430" y="345" />
              <mxPoint x="290" y="345" />
            </Array>
          </mxGeometry>
        </mxCell>
        <mxCell id="fz6lJ96PnOMNt2c9D2v0-51" value="&lt;b&gt;Success&lt;/b&gt;" style="text;html=1;align=center;verticalAlign=middle;whiteSpace=wrap;rounded=0;" vertex="1" parent="1">
          <mxGeometry x="750" y="245" width="60" height="30" as="geometry" />
        </mxCell>
        <mxCell id="fz6lJ96PnOMNt2c9D2v0-52" value="&lt;b&gt;Failed&lt;/b&gt;" style="text;html=1;align=center;verticalAlign=middle;whiteSpace=wrap;rounded=0;" vertex="1" parent="1">
          <mxGeometry x="485" y="325" width="110" height="20" as="geometry" />
        </mxCell>
        <mxCell id="fz6lJ96PnOMNt2c9D2v0-58" value="Before" style="text;html=1;align=center;verticalAlign=middle;whiteSpace=wrap;rounded=0;fontStyle=1" vertex="1" parent="1">
          <mxGeometry x="80" y="200" width="60" height="30" as="geometry" />
        </mxCell>
        <mxCell id="fz6lJ96PnOMNt2c9D2v0-59" value="After" style="text;html=1;align=center;verticalAlign=middle;whiteSpace=wrap;rounded=0;fontStyle=1" vertex="1" parent="1">
          <mxGeometry x="80" y="440" width="60" height="30" as="geometry" />
        </mxCell>
      </root>
    </mxGraphModel>
  </diagram>
</mxfile>
